<?xml version="1.0" encoding="UTF-8"?>
<svg
   xmlns:svg="http://www.w3.org/2000/svg"
   xmlns="http://www.w3.org/2000/svg"
   width="200"
   height="200"
   viewBox="0 0 200 200"
   id="svg36">
  <title>gold coin</title>
  <defs
     id="defs8">
    <filter
       id="filter5853"
       x="-.7751"
       y="-.33551"
       width="2.5502"
       height="1.671"
       color-interpolation-filters="sRGB">
      <feGaussianBlur
         stdDeviation="21.537181"
         id="feGaussianBlur2" />
    </filter>
    <filter
       id="filter5857"
       x="-1.5142"
       y="-1.8796"
       width="4.0284"
       height="4.7592"
       color-interpolation-filters="sRGB">
      <feGaussianBlur
         stdDeviation="21.537181"
         id="feGaussianBlur5" />
    </filter>
  </defs>
  <rect
     x="221.87"
     y="99.756"
     width="34.137"
     height="27.5"
     fill="#fff"
     filter="url(#filter5857)"
     opacity=".60082"
     id="rect14" />
  <g
     transform="matrix(.72016 0 0 .72016 2.2639 6.5436)"
     id="g34">
    <g
       transform="matrix(-1.3629 0 0 1 1606.2 -600)"
       id="g20">
      <path
         d="m1074.3 606.03c-42.303 0-76.585 55.943-76.585 124.96 0 69.026 34.285 124.98 76.585 124.98 2.0472 0 4.0759-0.12971 6.0827-0.38695-39.458-5.0583-70.514-58.916-70.514-124.6s31.058-119.52 70.514-124.58c-2.0067-0.25726-4.0357-0.38696-6.0827-0.38696z"
         color="#000000"
         fill="#d5b04f"
         id="path16" />
      <path
         d="m1063.2 607.32c-4.8928 1.1533-9.6339 3.0618-14.181 5.6495 3.2426 0.3127 7.1095 0.5001 11.276 0.52239 4.1905-2.4795 8.5483-4.3886 13.043-5.6495-2.9411-0.28764-6.4007-0.47132-10.138-0.52238zm-14.11 14.317c-4.6925 0-9.0211 0.21786-12.569 0.58042-1.5117 1.3986-2.9893 2.8727-4.4348 4.4306 2.808 0.50846 6.7076 0.8856 11.193 1.0642 1.9477-2.1693 3.9526-4.2007 6.0236-6.0752-0.072-1e-4 -0.1415 0-0.2134 0zm-13.399 14.356c-4.436 0.0644-8.4682 0.32738-11.703 0.71583-0.9851 1.3994-1.9534 2.836-2.8932 4.3146 2.8971 0.50914 6.9129 0.87897 11.502 1.0448 1.306-2.104 2.6596-4.1276 4.0554-6.0752-0.3193 2e-3 -0.6451-4e-3 -0.9605 0zm-9.2248 14.317c-4.1344 0.06-7.9226 0.29069-11.039 0.63844-0.7723 1.5095-1.5123 3.0554-2.2411 4.6241 3.1076 0.45464 7.1828 0.77588 11.751 0.88999 0.9571-2.0978 1.9421-4.1589 2.9762-6.1526-0.4844-2e-3 -0.9715-7e-3 -1.4466 0zm-4.9684 14.317c-4.6329 0.0144-8.8985 0.2322-12.379 0.59977-0.5974 1.5718-1.176 3.1617-1.7312 4.7789 3.2258 0.42057 7.3265 0.71206 11.881 0.79323 0.7077-2.097 1.4511-4.1505 2.2292-6.1719zm-7.0787 14.336c-3.5793 0-6.9494 0.12845-9.9245 0.34826-0.4948 1.7753-0.9545 3.5795-1.3992 5.398 3.2986 0.29024 7.1672 0.445 11.324 0.445 0.2398 0 0.4734 1e-3 0.7114 0 0.5042-2.086 1.0426-4.1426 1.6126-6.1719-0.7633-0.0116-1.5392-0.0193-2.324-0.0193zm-5.5849 14.336c-2.7057 0-5.2825 0.0832-7.6718 0.21282-0.3615 1.8794-0.6882 3.7911-0.996 5.7076 2.6571 0.16612 5.5837 0.27087 8.6678 0.27087 1.173 0 2.3161-0.013 3.4386-0.0387 0.3274-2.0546 0.6901-4.0825 1.079-6.0945-1.4585-0.0443-2.9669-0.058-4.5175-0.058zm-6.6876 14.336c-1.0841 0.0157-2.123 0.0587-3.154 0.0967-0.22842 1.9802-0.42238 3.9665-0.59286 5.9784 1.8942 0.0774 3.8847 0.11609 5.9526 0.11609 2.1532 0 4.2254-0.0518 6.1893-0.13544 0.1682-1.9819 0.3684-3.95 0.5929-5.901-2.1369-0.10075-4.4106-0.15478-6.7824-0.15478-0.7476 0-1.4773-0.0106-2.2055 0zm2.2055 14.317c-2.2651 0-4.4455 0.0432-6.4978 0.13543-0.0844 1.9577-0.13747 3.9195-0.16601 5.901 2.1015 0.0972 4.3362 0.15479 6.6636 0.15479 1.9011 0 3.7324-0.031 5.4901-0.0967 0.029-2.0146 0.08-4.0078 0.166-5.9978-1.8071-0.0698-3.6951-0.0967-5.6559-0.0967zm0 14.336c-2.3097 0-4.529 0.0591-6.6166 0.15478 0.0522 1.9797 0.1292 3.9462 0.23715 5.901 2.018 0.0888 4.1579 0.13544 6.3791 0.13544 2.008 0 3.9405-0.043 5.7864-0.11609-0.1094-1.9785-0.1967-3.9745-0.249-5.9784-1.7717-0.0669-3.6192-0.0967-5.5375-0.0967zm0 14.336c-1.9908 0-3.9078 0.0442-5.739 0.11609 0.19605 2.0149 0.42155 4.0161 0.67589 5.9978 1.6276 0.0558 3.3158 0.0774 5.0632 0.0774 2.4876 0 4.8648-0.0638 7.0909-0.17413-0.2486-1.9446-0.4833-3.9051-0.6758-5.8817-2.0289-0.0898-4.1807-0.13544-6.4148-0.13544zm-2.2055 14.336c-0.5543 8e-3 -1.0714 0.0247-1.6126 0.0387 0.3568 2.0628 0.7429 4.1151 1.162 6.1332 0.8717 0.0153 1.7557 0.0193 2.6561 0.0193 3.3923 0 6.59-0.11078 9.4502-0.30956-0.3837-1.8613-0.7483-3.7308-1.079-5.6302-2.5773-0.15451-5.4032-0.25152-8.3711-0.25152-0.7476 0-1.4773-0.0106-2.2055 0zm8.3594 14.317c-2.4075 0-4.7138 0.0511-6.8773 0.15478 0.5164 2.0019 1.0589 3.9926 1.6364 5.9398 1.6818 0.0599 3.4295 0.0967 5.2407 0.0967 2.4164 0 4.7297-0.0504 6.9012-0.15478-0.5779-1.9505-1.1197-3.9344-1.6364-5.9398-1.6895-0.0604-3.4447-0.0967-5.2646-0.0967zm2.241 14.336c-1.6405 0-3.23 0.028-4.7664 0.0774 0.7366 2.0686 1.518 4.1034 2.324 6.0945 0.8022 0.0129 1.6166 0.0193 2.4426 0.0193 3.4485 0 6.6982-0.1239 9.5925-0.32891-0.7475-1.8583-1.4707-3.7434-2.158-5.6688-2.3225-0.12158-4.8181-0.19347-7.4347-0.19347zm10.067 14.336c-3.1306 0-6.0975 0.1-8.7862 0.27086 0.9579 1.9862 1.9596 3.9179 2.9881 5.8043 1.8494 0.0734 3.7861 0.11608 5.7981 0.11608 2.2087 0 4.3358-0.0476 6.3438-0.13543-1.0649-1.9541-2.0937-3.9562-3.0829-6.0172-1.0661-0.0231-2.1496-0.0387-3.2607-0.0387zm5.5849 14.317c-2.2172 0-4.3528 0.0469-6.3673 0.13544 1.3768 2.0952 2.8001 4.1096 4.2687 6.0365 0.6903 9e-3 1.3911 0.0193 2.0988 0.0193 3.5371 0 6.867-0.11392 9.8179-0.32891-1.3914-1.8403-2.7471-3.7541-4.0555-5.7462-1.8388-0.0725-3.7632-0.11609-5.7628-0.11609zm13.992 14.336c-3.1492 0-6.1324 0.098-8.8336 0.27086 2.074 2.1269 4.2132 4.1 6.4147 5.901 0.7945 0.0126 1.6011 0.0193 2.4189 0.0193 3.369 0 6.5468-0.11334 9.3911-0.30956-2.1567-1.7875-4.2634-3.7418-6.2964-5.843-1.0132-0.0208-2.0415-0.0387-3.0948-0.0387zm18.723 14.336c-2.8169 0-5.4992 0.0923-7.9681 0.23217 6.7023 3.1276 13.788 4.7982 21.106 4.7982 1.7153 0 3.4113-0.09 5.0988-0.27087 0.2358-0.0526 0.4621-0.10024 0.6759-0.15478-5.1824-0.69844-10.22-2.2484-15.059-4.5467-1.2531-0.0322-2.536-0.0582-3.8535-0.0582z"
         fill="#c89c31"
         fill-rule="evenodd"
         id="path18" />
    </g>
    <path
       d="m26.934 130.49c0 69.023 46.081 124.98 102.92 124.98 56.843 0 102.92-55.955 102.92-124.98 0-69.023-46.081-124.98-102.92-124.98-56.843 0-102.92 55.955-102.92 124.98z"
       color="#000000"
       fill="#eed175"
       id="path22" />
    <path
       d="m29.534 131.41c0 67.259 44.903 121.78 100.29 121.78 55.39 0 100.29-54.525 100.29-121.78 0-67.259-44.903-121.78-100.29-121.78-55.39 0-100.29 54.525-100.29 121.78z"
       color="#000000"
       fill="#c89c31"
       id="path24" />
    <path
       d="m32.767 131.69c0 65.111 43.469 117.89 97.089 117.89s97.089-52.784 97.089-117.89c0-65.111-43.469-117.89-97.089-117.89s-97.089 52.784-97.089 117.89z"
       color="#000000"
       fill="#ebc859"
       id="path26" />
    <path
       d="m200.41 49.677c36.826 47.327 36.136 121.69-2.8386 166.41-10.526 12.077-21.872 22.236-35.789 26.755 8.5479-5.377 15.815-12.764 23.162-21.194 42.281-48.511 44.244-129.35 4.3948-180.56-3.8467-4.9436-8.1507-8.5384-12.45-12.567 8.4424 5.7143 16.53 12.176 23.521 21.159z"
       color="#000000"
       fill="#d2aa48"
       id="path28" />
    <path
       d="m70.959 225.76c-42.692-39.396-51.012-113.36-18.568-165.19 8.7621-14.001 19.616-24.941 31.611-32.699-7.7107 6.9986-14.776 15.393-20.893 25.166-35.196 56.238-26.27 136.39 19.927 179.01 4.4594 4.1152 9.1026 7.7224 13.885 10.845-9.097-3.9649-17.858-9.6509-25.962-17.129z"
       color="#000000"
       fill="#f7e587"
       id="path30" />
    <path
       d="m99.778 16.26c-38.722 15.498-66.688 59.79-66.688 112 0 14.825 2.2927 28.993 6.4063 42.062 20.103-51.352 40.22-102.69 60.281-154.06z"
       fill="#fff"
       filter="url(#filter5853)"
       opacity=".60082"
       id="path32" />
  </g>
</svg>
