<?xml version="1.0" encoding="UTF-8"?>
<svg width="400" height="100" version="1.1" viewBox="0 0 400 100" xmlns="http://www.w3.org/2000/svg">
 <g transform="translate(0 -308.27)" fill="#004d26" stroke="#004d26">
  <g transform="matrix(.44059 0 0 .44059 -30.031 177)" fill="#004d26" fill-rule="evenodd" stroke="#004d26">
   <path d="m535.42 433.66c-0.21139-1.3461-0.43721-2.6947-0.67748-4.0455-22.731-17.642-48.877-30.732-76.482-38.718-28.582-8.2692-58.75-11.073-88.339-7.7812-32.23 3.5827-63.064 13.961-93.592 24.226-30.616 10.294-60.954 20.485-92.576 23.998-7.9627 0.91123-16.087 1.3387-23.958 0.64063-7.8657-0.69756-15.444-2.5161-22.34-6.0734-6.913-3.5257-12.976-8.8067-16.812-15.451-1.9139-3.3152-3.2501-6.9937-3.88-10.772-0.62972-3.7764-0.55185-7.6397 0.34854-11.333 1.3091-5.4483 4.3711-10.477 8.4974-14.422 4.1255-3.9439 9.278-6.8152 14.802-8.5653 5.5316-1.7154 11.331-2.3045 17.182-2.0772 5.8524 0.22736 11.74 1.2708 17.437 2.8065 4.1405 1.1061 8.2518 2.4958 12.076 4.3543 3.8225 1.8578 7.3539 4.1821 10.34 7.157 3.0109 2.9493 5.4352 6.5424 6.7742 10.537 1.3388 3.994 1.5635 8.412 0.35505 12.467-1.1527 3.8789-3.6218 7.3833-6.9339 9.7904-3.3111 2.4063-7.4477 3.702-11.587 3.5983 4.1325 0.24494 8.3613-0.90595 11.831-3.2507 3.4687-2.344 6.1556-5.8667 7.4998-9.882 1.4034-4.2021 1.325-8.8451 0.0496-13.108-1.2752-4.2618-3.7066-8.1317-6.78-11.346-3.0967-3.1873-6.7614-5.681-10.7-7.6752-3.9369-1.9935-8.1525-3.4912-12.36-4.6893-5.7936-1.6357-11.838-2.7854-17.897-3.0929-6.0598-0.3075-12.151 0.22657-18.027 1.9723-5.8829 1.7111-11.496 4.6434-16.089 8.8294-4.5916 4.1852-8.1406 9.6536-9.7626 15.76-1.0921 4.161-1.2502 8.5014-0.62127 12.728 0.62878 4.2258 2.0459 8.3511 4.1183 12.09 4.1367 7.4648 10.719 13.367 18.175 17.335 7.472 3.9371 15.608 5.9402 23.89 6.7476 8.277 0.80693 16.736 0.42312 24.882-0.43711 32.218-3.5072 63.056-13.81 93.616-24.01 30.648-10.23 60.99-20.348 92.599-23.791 28.907-3.1459 58.382-0.33689 86.301 7.8132 26.965 7.8715 52.458 20.719 74.578 37.972 1.3481-0.115 2.7021-0.21657 4.0619-0.30447z"/>
   <path d="m491.76 408.44c-3.075-1.7405-6.8644-2.2295-10.307-1.3091-3.4411 0.92006-6.511 3.2444-8.3364 6.3376-2.0842 3.542-2.496 8.0425-1.1531 11.98 1.3424 3.9353 4.395 7.2673 8.2014 9.0496 3.312 1.556 7.2387 1.928 10.639 0.63985 1.708-0.62752 3.2771-1.6646 4.4873-3.034 1.21-1.3692 2.0575-3.0766 2.3616-4.8911 0.43792-2.7237-0.40346-5.6497-2.2543-7.7415-4.0194-3.549-9.5702-0.26596-7.895-5.1463 2.8837-0.1814 6.2255 2.713 8.2182 4.8526 1.9914 2.1383 2.9738 5.2005 2.5791 8.1305-0.25098 1.954-1.0886 3.8261-2.3437 5.3609-1.2549 1.5347-2.9158 2.7284-4.7562 3.4858-3.6965 1.4818-7.9661 1.1491-11.581-0.46565-4.1461-1.8577-7.5448-5.4172-9.0984-9.7348-1.5529-4.3157-1.2024-9.3232 1.082-13.358 1.9904-3.5251 5.404-6.2296 9.3227-7.3583 3.9176-1.1283 8.2776-0.66302 11.89 1.2911z"/>
   <path d="m453.95 410.99c0.92994 3.3613 7.6032 8.486 14.172 9.299 0 0 0.41822-1.158 2.0207 3.6861 4.0059-10.785-7.3577-12.931-16.192-12.985z"/>
   <path d="m459.2 426.3c2.1561 0.14976 6.5271-2.6932 8.3568-6.3642 0 0-0.59046-0.48321 2.5708-0.42072-5.4767-4.5652-9.0743 1.633-10.928 6.7849z"/>
   <path d="m412.51 397.96c0.92994-3.3613 7.6032-8.486 14.172-9.299 0 0 0.41822 1.158 2.0207-3.6861 4.0059 10.785-7.3577 12.931-16.192 12.985z"/>
   <path d="m434.74 398.02c0.48502-2.0041-1.4912-6.5692-4.652-8.8762 0 0-0.54875 0.47824 0.0147-2.4852-5.1682 4.4224 0.0874 8.7958 4.6373 11.361z"/>
   <path d="m311.71 401.45c-5.8507 2.0866-10.859 6.5625-13.594 12.198-2.7343 5.6334-3.1746 12.388-1.1613 18.373 2.3124 6.8449 7.8225 12.568 14.602 15.311 6.7761 2.7412 14.717 2.5146 21.465-0.49655 5.8779-2.614 10.889-7.407 13.087-13.41 1.13-2.9927 1.5558-6.2716 1.127-9.4556-0.42885-3.1835-1.7242-6.274-3.7872-8.7651-3.1177-3.7148-4.9103 0.93617-9.82 0.99128-4.8895 0.0548-12.81-4.5017-15.919-0.65034l-0.067 1.0115-0.30818-1.068c-0.0114-0.0395 4e-3 -0.0913 0.0394-0.13874 3.0753-4.0427 8.0338-6.6308 13.17-6.8195 5.1334-0.18856 10.335 2.0271 13.776 5.9218 2.3094 2.581 3.8351 5.8478 4.4323 9.2818 0.59717 3.4335 0.27427 7.0146-0.83544 10.333-2.2811 6.619-7.6339 11.913-13.939 14.863-7.2384 3.376-15.88 3.8011-23.407 0.9012-7.524-2.8987-13.779-9.1239-16.516-16.802-2.3977-6.7006-2.0677-14.35 0.93853-20.858 3.0053-6.5065 8.6384-11.768 15.391-14.323z"/>
   <path d="m306.37 446.32c-1.5846-1.4641-3.7687-2.2841-5.9432-2.2178-2.1739 0.0662-4.3233 1.0189-5.8404 2.6025-1.7336 1.8142-2.607 4.4317-2.3588 6.9594 0.24817 2.5266 1.5972 4.9336 3.6107 6.5246 1.7512 1.3875 4.0333 2.1572 6.2344 1.8665 1.1029-0.1344 2.1804-0.53164 3.091-1.1765 0.91048-0.64481 1.6527-1.5413 2.0869-2.5774 0.64077-1.5578 0.4426-2.7577-0.36533-4.2596-0.80457-1.4956-2.2002-3.2692-3.8861-3.6054l-0.32203 0.14234 0.27896-0.26687c0.0103-0.01 0.0287-0.0136 0.049-0.0101 1.7394 0.29496 3.3345 1.4038 4.2201 2.9539 0.88501 1.5492 1.0412 3.5065 0.39725 5.193-0.42213 1.1264-1.1815 2.1222-2.142 2.8591-0.96028 0.73687-2.1142 1.2145-3.314 1.4075-2.4042 0.36446-4.8955-0.42971-6.8188-1.8945-2.2049-1.6834-3.7278-4.2739-4.0482-7.0572-0.32019-2.7821 0.58766-5.7096 2.5091-7.7888 1.6755-1.8173 4.0823-2.948 6.5692-3.0715 2.4862-0.12343 5.0127 0.76219 6.8867 2.4283z"/>
   <path d="m299.45 400.95c1.9066-1.0096 3.4042-2.7984 4.0626-4.872 0.6582-2.0729 0.47187-4.4166-0.51925-6.3729-1.1369-2.237-3.3169-3.9288-5.784-4.5325-2.466-0.60343-5.184-0.12861-7.3527 1.2436-1.8896 1.1922-3.3722 3.0901-3.8277 5.2631-0.23879 1.0851-0.22124 2.2334 0.0853 3.3063 0.30654 1.0728 0.90625 2.0702 1.7398 2.8233 1.2573 1.121 2.455 1.3318 4.1398 1.0674 1.6778-0.26328 3.8138-0.99208 4.6898-2.4712l-0.0276-0.35104 0.15931 0.35165c6e-3 0.0127 3e-3 0.0316-7e-3 0.0497-0.85492 1.5432-2.4298 2.6806-4.1858 3.0022-1.755 0.32137-3.6534-0.18013-5.031-1.3467-0.92277-0.77167-1.6105-1.8182-1.9874-2.9686-0.37688-1.1503-0.44491-2.3973-0.22937-3.5932 0.45316-2.389 2.0283-4.4762 4.0479-5.8052 2.3191-1.5222 5.268-2.1002 8.0002-1.4798 2.731 0.62019 5.1919 2.4472 6.5166 4.9492 1.159 2.1832 1.428 4.8287 0.72005 7.216-0.70771 2.3865-2.3808 4.4766-4.5739 5.6923z"/>
   <path d="m96.09 446.94c-3.6202-3.1745-5.8759-7.9099-5.9983-12.781-0.10834-3.4617 0.82463-6.9451 2.576-9.9586 1.7511-3.0132 4.3013-5.5472 7.2852-7.3743 6.0038-3.6013 13.508-4.2129 20.233-2.4165 6.0577 1.6259 11.6 5.2083 15.592 10.089l-1.7082 2.0337c-3.5801-4.7127-8.752-8.2571-14.499-9.9028-6.1821-1.7788-13.102-1.3313-18.646 1.8514-2.7901 1.5649-5.225 3.8017-6.9444 6.5156-1.7192 2.7136-2.7147 5.9129-2.7373 9.1472 0 4.8497 4.3622 2.4421 8.1571 5.5577 3.7793 3.1027 6.9139 11.685 11.771 10.736l0.70163-0.73143-0.4506 1.0162c-0.0162 0.0373-0.0614 0.0677-0.11948 0.0809-4.9549 1.1177-10.417-0.09-14.471-3.2492-0.25327-0.19733-0.50058-0.40145-0.74192-0.61308z"/>
   <path d="m281.98 428.92c-0.24489-1.309 0.0737-2.7244 0.87952-3.8047 0.56798-0.7714 1.3662-1.3696 2.262-1.7257 0.89574-0.35608 1.8834-0.47139 2.8446-0.35884 1.9211 0.2427 3.6577 1.392 4.8133 2.9319 1.0396 1.3888 1.6328 3.1149 1.667 4.8585l-0.71903 0.15042c0.0267-1.6367-0.49242-3.2914-1.4611-4.6313-1.0405-1.4433-2.622-2.5284-4.3715-2.7836-0.87421-0.13646-1.786-0.0661-2.6237 0.23037-0.83758 0.29636-1.6008 0.82204-2.1584 1.5216-0.82914 1.0544 0.53139 1.2765 0.82435 2.6026 0.29174 1.3206-0.49315 3.7228 0.72556 4.3464l0.27757-0.039-0.27162 0.14396c-0.01 5e-3 -0.025 4e-3 -0.0398-4e-3 -1.2686-0.60361-2.2501-1.7996-2.592-3.1795-0.0214-0.0862-0.0403-0.17284-0.0566-0.26012z"/>
   <path d="m486.15 374.96c-23.424 8.9262-17.312 23.328-16.601 21.432 17.9 5.446 12.427-10.171 16.601-21.432z"/>
   <path d="m348.45 361.32c1.521 25.021 17.091 23.49 15.494 22.245 10.545-15.456-5.9945-14.898-15.494-22.245z"/>
   <path d="m180.48 417.48c13.274 3.9353 15.419-4.4348 14.471-3.841-6.0307-8.3915-8.8644 0.29799-14.471 3.841z"/>
   <path d="m218.77 430.45c2.8665-2.0659 6.5799-2.9657 10.102-2.4267 3.521 0.53879 6.8263 2.514 8.9786 5.3894 2.4585 3.2933 3.3593 7.7219 2.4543 11.782-0.90464 4.0583-3.5751 7.7037-7.1642 9.891-3.1222 1.9084-6.9849 2.7069-10.506 1.7978-1.7663-0.43731-3.4393-1.2968-4.7918-2.5258-1.3523-1.2289-2.3812-2.8335-2.8815-4.604-0.73272-2.6596-0.21586-5.66 1.3955-7.9413 3.6079-3.9666 9.484-1.3094 7.2858-5.9777-2.8862 0.13458-5.892 3.3766-7.6392 5.721-1.746 2.343-2.3882 5.4942-1.6758 8.3635 0.46285 1.915 1.4999 3.6844 2.9151 5.073 1.415 1.3884 3.1962 2.3937 5.1084 2.9456 3.8362 1.0693 8.044 0.2724 11.461-1.7275 3.9185-2.2994 6.9082-6.2087 7.981-10.67 1.0724-4.4594 0.17714-9.3987-2.5342-13.16-2.3634-3.2867-6.0518-5.6023-10.07-6.2963-4.0174-0.69383-8.3005 0.24476-11.677 2.5816z"/>
   <path d="m531.53 432.83c1.3598 0.0879 2.7138 0.18947 4.0619 0.30447 22.12-17.253 47.613-30.101 74.578-37.972 27.919-8.1501 57.394-10.959 86.301-7.8132 31.609 3.4432 61.951 13.561 92.599 23.791 30.56 10.201 61.399 20.503 93.616 24.01 8.1462 0.86024 16.605 1.244 24.882 0.43713 8.2825-0.80747 16.418-2.8105 23.89-6.7476 3.7318-1.9863 7.24-4.454 10.332-7.3566 3.0928-2.9031 5.7738-6.2453 7.8428-9.9788 2.0724-3.7394 3.4895-7.8647 4.1183-12.09 0.62897-4.2271 0.47082-8.5675-0.62127-12.728-1.622-6.1063-5.171-11.575-9.7626-15.76-4.5926-4.186-10.206-7.1182-16.089-8.8294-5.8753-1.7457-11.967-2.2798-18.027-1.9723-6.0591 0.30747-12.104 1.4571-17.897 3.0929-4.2079 1.1981-8.4236 2.6957-12.36 4.6893-3.9382 1.9942-7.6029 4.488-10.7 7.6752-3.0733 3.2139-5.5048 7.0839-6.78 11.346-1.2754 4.2624-1.3538 8.9054 0.0496 13.108 1.3442 4.0153 4.0312 7.538 7.4998 9.882 3.4697 2.3447 7.6985 3.4956 11.831 3.2507-4.1398 0.10362-8.2764-1.192-11.587-3.5983-3.3121-2.4071-5.7812-5.9115-6.9339-9.7904-1.2085-4.0551-0.9838-8.473 0.35505-12.467 1.339-3.9947 3.7633-7.5878 6.7742-10.537 2.9865-2.975 6.5179-5.2992 10.34-7.157 3.824-1.8586 7.9353-3.2483 12.076-4.3543 5.6972-1.5357 11.585-2.5791 17.437-2.8065 5.8518-0.22734 11.651 0.36182 17.182 2.0772 5.524 1.7501 10.677 4.6214 14.802 8.5653 4.1263 3.9448 7.1883 8.9734 8.4974 14.422 0.90039 3.6931 0.97826 7.5564 0.34854 11.333-0.62995 3.7778-1.9661 7.4563-3.88 10.772-1.9172 3.3211-4.3907 6.302-7.2519 8.895-2.8618 2.5935-6.1073 4.7951-9.5599 6.556-6.8968 3.5573-14.475 5.3758-22.34 6.0734-7.8713 0.69805-15.996 0.2706-23.958-0.64063-31.623-3.513-61.96-13.704-92.576-23.998-30.529-10.265-61.362-20.643-93.592-24.226-29.59-3.2922-59.757-0.48803-88.339 7.7812-27.604 7.9863-53.75 21.076-76.482 38.718-0.24027 1.3508-0.46609 2.6994-0.67748 4.0455z"/>
   <path d="m579.18 407.61c3.0749-1.7406 6.8644-2.2295 10.307-1.3091 3.4411 0.92011 6.511 3.2444 8.3364 6.3376 2.0842 3.5421 2.496 8.0425 1.1531 11.98-1.3424 3.9353-4.395 7.2673-8.2014 9.0496-3.312 1.556-7.2387 1.928-10.639 0.63985-1.708-0.62757-3.2771-1.6646-4.4873-3.034-1.21-1.3692-2.0575-3.0766-2.3615-4.8911-0.43793-2.7237 0.40346-5.6498 2.2543-7.7415 4.0194-3.5489 9.5702-0.26591 7.895-5.1463-2.8837-0.1814-6.2256 2.713-8.2182 4.8526-1.9914 2.1384-2.9738 5.2005-2.5791 8.1305 0.25098 1.954 1.0886 3.8261 2.3437 5.361 1.2549 1.5346 2.9157 2.7284 4.7562 3.4858 3.6965 1.4819 7.9661 1.1492 11.581-0.46561 4.1461-1.8578 7.5448-5.4173 9.0984-9.7348 1.5529-4.3157 1.2024-9.3232-1.082-13.358-1.9904-3.5251-5.404-6.2296-9.3227-7.3583-3.9176-1.1284-8.2776-0.66302-11.89 1.2911z"/>
   <path d="m617 410.16c-0.92994 3.3614-7.6032 8.486-14.172 9.2991 0 0-0.41822-1.1579-2.0207 3.6861-4.0059-10.785 7.3577-12.931 16.192-12.985z"/>
   <path d="m611.75 425.47c-2.1561 0.14972-6.5271-2.6932-8.3568-6.3642 0 0 0.59045-0.4832-2.5708-0.42067 5.4767-4.5652 9.0743 1.633 10.928 6.7849z"/>
   <path d="m658.44 397.13c-0.92994-3.3613-7.6032-8.486-14.172-9.2991 0 0-0.41822 1.1579-2.0207-3.6861-4.0059 10.785 7.3577 12.931 16.192 12.985z"/>
   <path d="m636.21 397.19c-0.48503-2.0041 1.4912-6.5692 4.652-8.8762 0 0 0.54874 0.47825-0.0147-2.4852 5.1682 4.4225-0.0874 8.7958-4.6373 11.361z"/>
   <path d="m759.24 400.62c5.8507 2.0866 10.859 6.5626 13.594 12.198 2.7343 5.6334 3.1746 12.388 1.1613 18.373-2.3124 6.8449-7.8225 12.568-14.602 15.311-6.7761 2.7412-14.717 2.5146-21.465-0.49654-5.8779-2.614-10.889-7.407-13.087-13.41-1.13-2.9928-1.5558-6.2717-1.127-9.4556 0.42885-3.1836 1.7242-6.274 3.7872-8.7651 3.1177-3.7148 4.9103 0.93612 9.8201 0.99124 4.8895 0.0549 12.81-4.5017 15.919-0.65034l0.067 1.0115 0.30821-1.0679c0.0114-0.0395-4e-3 -0.0913-0.0395-0.13871-3.0753-4.0427-8.0338-6.6309-13.17-6.8195-5.1334-0.18851-10.335 2.0272-13.776 5.9218-2.3094 2.581-3.8351 5.8478-4.4323 9.2818-0.59717 3.4335-0.27427 7.0146 0.83544 10.333 2.2811 6.619 7.6339 11.913 13.939 14.863 7.2384 3.376 15.88 3.801 23.407 0.9012 7.524-2.8987 13.779-9.1239 16.516-16.802 2.3977-6.7006 2.0677-14.35-0.93855-20.858-3.0054-6.5065-8.6384-11.768-15.391-14.323z"/>
   <path d="m764.58 445.49c1.5846-1.4641 3.7686-2.2841 5.9432-2.2178 2.1739 0.0662 4.3233 1.0189 5.8404 2.6025 1.7336 1.8142 2.6071 4.4318 2.3588 6.9595-0.24818 2.5266-1.5972 4.9335-3.6107 6.5246-1.7512 1.3875-4.0333 2.1572-6.2345 1.8665-1.1029-0.13445-2.1804-0.53164-3.091-1.1765-0.9105-0.64486-1.6528-1.5413-2.0869-2.5774-0.64078-1.5578-0.44262-2.7577 0.3653-4.2595 0.80457-1.4957 2.2002-3.2692 3.8861-3.6054l0.32204 0.14235-0.27895-0.26688c-0.0101-0.01-0.0285-0.0136-0.049-0.0101-1.7394 0.295-3.3346 1.4038-4.2201 2.9539-0.88501 1.5492-1.0412 3.5066-0.39724 5.193 0.42212 1.1264 1.1815 2.1222 2.1419 2.8591 0.9603 0.73692 2.1142 1.2145 3.314 1.4076 2.4041 0.36442 4.8955-0.42976 6.8188-1.8945 2.2049-1.6834 3.7278-4.2739 4.0482-7.0572 0.32019-2.7822-0.58768-5.7096-2.5091-7.7888-1.6755-1.8172-4.0822-2.948-6.5692-3.0714-2.4862-0.12344-5.0127 0.76218-6.8867 2.4282z"/>
   <path d="m771.5 400.12c-1.9066-1.0096-3.4043-2.7984-4.0626-4.872-0.6582-2.0729-0.47188-4.4166 0.51927-6.3729 1.1369-2.237 3.3169-3.9288 5.7839-4.5324 2.466-0.60343 5.1841-0.12861 7.3527 1.2436 1.8896 1.1922 3.3722 3.0902 3.8277 5.2632 0.23879 1.0851 0.22129 2.2333-0.0853 3.3063-0.30654 1.0727-0.90625 2.0702-1.7398 2.8233-1.2572 1.121-2.455 1.3318-4.1398 1.0674-1.6778-0.26323-3.8138-0.99203-4.6898-2.4712l0.0276-0.35099-0.15929 0.35165c-6e-3 0.0127-4e-3 0.0316 7e-3 0.0496 0.85491 1.5432 2.4298 2.6806 4.1858 3.0022 1.755 0.32142 3.6534-0.18012 5.0311-1.3467 0.92275-0.77166 1.6105-1.8182 1.9874-2.9686 0.37688-1.1503 0.4449-2.3972 0.22936-3.5932-0.45314-2.389-2.0283-4.4762-4.0478-5.8052-2.3192-1.5221-5.268-2.1002-8.0002-1.4798-2.7309 0.62019-5.1919 2.4472-6.5166 4.9493-1.1591 2.1832-1.428 4.8287-0.72006 7.2159 0.70769 2.3866 2.3808 4.4766 4.5739 5.6923z"/>
   <path d="m788.97 428.09c0.2449-1.3091-0.0737-2.7244-0.87952-3.8047-0.56798-0.77136-1.3662-1.3695-2.262-1.7257-0.89576-0.35612-1.8834-0.4714-2.8446-0.35889-1.9211 0.24274-3.6577 1.392-4.8132 2.9319-1.0396 1.3888-1.6328 3.1149-1.667 4.8585l0.71901 0.15038c-0.0268-1.6367 0.49242-3.2914 1.4611-4.6313 1.0405-1.4433 2.6219-2.5284 4.3715-2.7836 0.87421-0.13646 1.786-0.0661 2.6237 0.23033 0.83762 0.29636 1.6008 0.82208 2.1584 1.5216 0.82915 1.0544-0.53138 1.2765-0.82437 2.6026-0.29171 1.3206 0.49316 3.7228-0.72555 4.3463l-0.27758-0.039 0.27166 0.14401c0.0101 5e-3 0.025 4e-3 0.0399-4e-3 1.2686-0.60366 2.2501-1.7996 2.592-3.1796 0.0215-0.0862 0.0404-0.17285 0.0566-0.26012z"/>
   <path d="m584.8 374.13c23.424 8.9262 17.312 23.328 16.601 21.432-17.9 5.446-12.427-10.171-16.601-21.432z"/>
   <path d="m722.49 360.49c-1.521 25.021-17.091 23.49-15.494 22.245-10.545-15.456 5.9945-14.898 15.494-22.245z"/>
   <path d="m890.47 416.65c-13.274 3.9353-15.419-4.4348-14.471-3.8409 6.0307-8.3916 8.8644 0.29798 14.471 3.8409z"/>
   <path d="m852.18 429.62c-2.8665-2.0659-6.5799-2.9657-10.102-2.4267-3.521 0.5388-6.8263 2.5141-8.9786 5.3894-2.4586 3.2933-3.3593 7.7219-2.4543 11.782 0.90466 4.0583 3.5751 7.7038 7.1642 9.891 3.1222 1.9084 6.9849 2.7069 10.506 1.7978 1.7663-0.4373 3.4393-1.2968 4.7918-2.5258 1.3523-1.2289 2.3812-2.8336 2.8815-4.604 0.7327-2.6596 0.21584-5.66-1.3955-7.9414-3.6079-3.9666-9.484-1.3094-7.2858-5.9776 2.8862 0.13454 5.892 3.3766 7.6392 5.721 1.7461 2.343 2.3882 5.4942 1.6758 8.3636-0.46284 1.915-1.4999 3.6844-2.9151 5.073-1.415 1.3884-3.1963 2.3937-5.1084 2.9456-3.8362 1.0693-8.044 0.27241-11.461-1.7274-3.9184-2.2994-6.9081-6.2087-7.981-10.67-1.0724-4.4594-0.17714-9.3987 2.5342-13.16 2.3634-3.2867 6.0519-5.6023 10.07-6.2963 4.0174-0.69387 8.3004 0.24476 11.677 2.5816z"/>
  </g>
 </g>
</svg>
