<?xml version="1.0" encoding="UTF-8"?>
<svg width="200" height="200" version="1.1" viewBox="0 0 200 200" xmlns="http://www.w3.org/2000/svg" xmlns:xlink="http://www.w3.org/1999/xlink">
 <defs>
  <linearGradient id="linearGradient2834">
   <stop stop-color="#f9eba4" offset="0"/>
   <stop stop-color="#c99e35" stop-opacity="0" offset="1"/>
  </linearGradient>
  <linearGradient id="linearGradient2780">
   <stop stop-color="#fff" offset="0"/>
   <stop stop-color="#fff" stop-opacity="0" offset="1"/>
  </linearGradient>
  <linearGradient id="linearGradient2713">
   <stop offset="0"/>
   <stop stop-color="#fff" offset="1"/>
  </linearGradient>
  <linearGradient id="linearGradient2707" x1="29.614" x2="44.724" y1="52.609" y2="52.609" gradientTransform="matrix(2.1518 0 0 1.7708 -.051304 4.3518)" gradientUnits="userSpaceOnUse" spreadMethod="reflect">
   <stop stop-color="#c89c31" offset="0"/>
   <stop stop-color="#ebc85a" offset=".75"/>
   <stop stop-color="#ebc859" offset="1"/>
  </linearGradient>
  <linearGradient id="linearGradient2732" x1="29.094" x2="29.094" y1="46.357" y2="47.296" gradientTransform="matrix(2.2188 0 0 1.826 -.051304 -1.0128)" gradientUnits="userSpaceOnUse" spreadMethod="reflect" xlink:href="#linearGradient2713"/>
  <linearGradient id="linearGradient2736" x1="24.261" x2="24.606" y1="44.011" y2="45.888" gradientTransform="matrix(2.2188 0 0 1.826 -.051304 -1.0128)" gradientUnits="userSpaceOnUse" spreadMethod="reflect" xlink:href="#linearGradient2713"/>
  <radialGradient id="radialGradient2811" cx="20.361" cy="22.546" r="15.157" gradientTransform="matrix(.43334 0 0 1.435 6.4099 -.11314)" gradientUnits="userSpaceOnUse" xlink:href="#linearGradient2780"/>
  <radialGradient id="radialGradient2813" cx="20.361" cy="22.546" r="15.157" gradientTransform="matrix(.50007 0 0 1.6752 5.003 -5.1081)" gradientUnits="userSpaceOnUse" xlink:href="#linearGradient2780"/>
  <radialGradient id="radialGradient2815" cx="20.361" cy="22.546" r="15.157" gradientTransform="matrix(.6214 0 0 1.8821 2.3888 -9.4094)" gradientUnits="userSpaceOnUse" xlink:href="#linearGradient2780"/>
  <radialGradient id="radialGradient2869" cx="21.595" cy="8.9814" r="6.0679" gradientTransform="matrix(3.8842,0,0,2.5188,-6.2942,4.5635)" gradientUnits="userSpaceOnUse" xlink:href="#linearGradient2834"/>
  <radialGradient id="radialGradient2873" cx="21.595" cy="8.9814" r="6.0679" gradientTransform="matrix(-3.8842,0,0,2.5188,206.29,4.4175)" gradientUnits="userSpaceOnUse" xlink:href="#linearGradient2834"/>
  <linearGradient id="linearGradient2895" x1="33.184" x2="33.184" y1="24.385" y2="-13.17" gradientTransform="matrix(3.5469,0,0,2.6326,-5.7148,7.8898)" gradientUnits="userSpaceOnUse" xlink:href="#linearGradient2780"/>
  <linearGradient id="linearGradient2935" x1="33.184" x2="33.184" y1="24.385" y2="-13.17" gradientTransform="matrix(3.6275,0,0,2.8658,-8.1185,1.4145)" gradientUnits="userSpaceOnUse" xlink:href="#linearGradient2780"/>
  <linearGradient id="linearGradient2943" x1="38.782" x2="38.782" y1="9.5746" y2="7.5863" gradientTransform="matrix(2.6785,0,0,3.6218,-5.7148,4.5635)" gradientUnits="userSpaceOnUse" xlink:href="#linearGradient2780"/>
  <linearGradient id="linearGradient2951" x1="38.363" x2="39.724" y1="11.17" y2="6.0918" gradientTransform="matrix(2.6876,0,0,3.6097,-5.7148,4.5635)" gradientUnits="userSpaceOnUse" xlink:href="#linearGradient2780"/>
  <radialGradient id="radialGradient2955" cx="21.595" cy="8.9814" r="6.0679" gradientTransform="matrix(5.0633 0 0 2.995 -31.866 -.012341)" gradientUnits="userSpaceOnUse" xlink:href="#linearGradient2834"/>
  <radialGradient id="radialGradient2959" cx="21.595" cy="8.9814" r="6.0679" gradientTransform="matrix(-4.6715 0 0 3.0461 223.37 -.64975)" gradientUnits="userSpaceOnUse" xlink:href="#linearGradient2834"/>
  <linearGradient id="linearGradient3080" x1="26.974" x2="26.974" y1="68.68" y2="44.981" gradientTransform="matrix(2.1361,0,0,1.826,2.3487,-1.0128)" gradientUnits="userSpaceOnUse" xlink:href="#linearGradient2780"/>
  <linearGradient id="linearGradient3084" x1="35.996" x2="35.996" y1="1.6246" y2="11.711" gradientTransform="matrix(2.6785,0,0,3.5541,-5.7148,7.5143)" gradientUnits="userSpaceOnUse" xlink:href="#linearGradient2780"/>
  <linearGradient id="linearGradient3086" x1="17.682" x2="17.425" y1="60.434" y2="62.78" gradientTransform="matrix(2.2188 0 0 1.826 -.051304 -1.0128)" gradientUnits="userSpaceOnUse" spreadMethod="reflect" xlink:href="#linearGradient2713"/>
 </defs>
 <g transform="matrix(1.0836 0 0 1.0836 -8.3604 -4.2583)" fill-rule="evenodd">
  <g stroke-width="1.5474">
   <path d="m99.999 7.5001c-32.943 0-59.465 23.575-59.465 52.858v58.732h16.518v-58.732c0-21.149 19.154-38.176 42.947-38.176s42.947 17.026 42.947 38.176v58.732h16.518v-58.732c0-29.284-26.521-52.858-59.465-52.858z" fill="#282828"/>
   <path d="m99.999 11.336c-31.113 0-56.161 23.791-56.161 50.93v54.751c0 20.555 14.404 38.005 34.893 45.295-14.681-5.942-24.983-18.674-24.983-33.77v-69.159c0-20.753 19.154-38.838 42.947-38.838h6.6072c23.792 0 42.947 18.085 42.947 38.838v69.159c0 15.096-10.302 27.828-24.983 33.77 20.49-7.2911 34.893-24.74 34.893-45.295v-54.751c0-27.139-25.047-50.93-56.161-50.93z" fill="url(#linearGradient3084)" opacity=".65"/>
   <path d="m99.999 8.7459c-32.021 0-57.8 22.761-57.8 51.033v57.037c0 21.413 14.825 39.591 35.912 47.187-15.109-6.1901-25.712-19.453-25.712-35.179v-72.046c0-21.62 19.713-42.428 44.199-42.428h6.7999c24.486 0 44.199 20.809 44.199 42.428v72.046c0 15.726-10.603 28.989-25.712 35.179 21.087-7.5956 35.912-25.773 35.912-47.187v-57.037c0-28.273-25.779-51.033-57.8-51.033z" fill="url(#linearGradient2951)" opacity=".5"/>
   <path d="m75.564 22.094c-8.9258 4.9679-13.949 13.437-12.965 16.26 1.0597 3.0419 7.331-10.553 25.083-14.763 13.689-3.2465-8.09e-4 -8.241-12.119-1.4964z" fill="url(#radialGradient2869)" opacity=".8"/>
   <path d="m124.44 21.948c8.9258 4.9679 13.949 13.437 12.965 16.26-1.0597 3.0419-7.331-10.553-25.083-14.763-13.689-3.2465 8.1e-4 -8.241 12.119-1.4964z" fill="url(#radialGradient2873)" opacity=".8"/>
   <path d="m99.999 13.743c-31.113 0-56.161 18.959-56.161 46.614v55.795c0 20.947 14.404 38.729 34.893 46.159-14.681-6.0553-24.983-19.03-24.983-34.413v-70.478c0-21.149 19.154-38.198 42.947-38.198h6.6072c23.792 0 42.947 17.049 42.947 38.198v70.478c0 15.383-10.302 28.357-24.983 34.413 20.49-7.4302 34.893-25.212 34.893-46.159v-55.795c0-27.657-25.047-46.614-56.161-46.614z" fill="url(#linearGradient2943)" opacity=".5"/>
   <path d="m99.999 10.475c-43.923 0-54.058 34.015-54.058 49.399 0 46.152 3.3787 46.152 3.3787 0 0-33.846 27.02-47.204 50.68-47.204s50.68 14.74 50.68 47.204c0 46.152 3.3787 46.152 3.3787 0 0-15.384-10.136-49.399-54.058-49.399z" fill="url(#linearGradient2935)" opacity=".8"/>
   <path d="m99.999 14.928c-42.947 0-52.857 32.534-52.857 46.667 0 42.399 3.3035 42.399 3.3035 0 0-31.093 26.419-44.65 49.553-44.65 23.135 0 49.553 14.826 49.553 44.65 0 42.399 3.3035 42.399 3.3035 0 0-14.133-9.9108-46.667-52.857-46.667z" fill="url(#linearGradient2895)" opacity=".6"/>
  </g>
  <g transform="matrix(1.6413,0,0,1.4589,-5.6306,4.5823)" fill="#fff">
   <path d="m36.98 16.488c-2.8752 5.2482 3.0271 1.9311 4.398 0.27381 3.8539-4.659 10.368-8.0363 16.085-9.1385 4.7947-0.92436 5.5258-2.7757 1.5775-3.0822-7.8721-0.61105-19.304 6.9156-22.061 11.947z" opacity=".8"/>
   <path d="m32.623 25.156c0.30478 2.5648 5.2635-5.7978 9.1677-9.7237 4.7683-4.7948 11.996-8.1508 15.473-8.5942 6.1984-0.79048 3.2564-3.828-0.62868-3.0606-14.12 2.7892-24.79 14.838-24.013 21.379z" opacity=".6"/>
   <path d="m91.58 16.452c2.8946 5.2376-3.0199 1.9423-4.3969 0.29-3.871-4.6448-10.397-7.9981-16.119-9.0792-4.7981-0.9067-6.1484-2.7521-2.2013-3.0731 7.8698-0.64003 19.942 6.8412 22.717 11.862z" opacity=".8"/>
   <path d="m95.798 24.925c-0.29533 2.5659-5.2848-5.7784-9.2035-9.6899-4.786-4.7773-12.026-8.1066-15.505-8.5372-6.2013-0.76765-3.2925-3.6952 0.61676-3.0622 14.142 2.3014 24.845 14.746 24.092 21.289z" opacity=".6"/>
  </g>
  <path d="m74.844 20.832c-11.636 5.9072-18.184 15.977-16.902 19.334 1.3814 3.6168 9.5566-12.548 32.699-17.554 17.845-3.8602-0.0011-9.7989-15.798-1.7793z" fill="url(#radialGradient2955)" opacity=".4" stroke-width="1.5474"/>
  <path d="m124.92 20.55c10.735 6.008 16.775 16.25 15.593 19.663-1.2745 3.6785-8.817-12.763-30.168-17.854-16.463-3.9261 9.7e-4 -9.9662 14.575-1.8098z" fill="url(#radialGradient2959)" opacity=".4" stroke-width="1.5474"/>
  <g transform="matrix(1.6413,0,0,1.4589,-5.6317,4.5823)">
   <rect x="24.103" y="57.359" width="80.513" height="66.259" rx=".5" ry=".5" fill="url(#linearGradient2707)"/>
   <rect x="24.103" y="57.359" width="80.513" height="66.259" rx=".5" ry=".5" fill="url(#linearGradient2732)" opacity=".03"/>
   <rect x="24.103" y="57.359" width="80.513" height="66.259" rx=".5" ry=".5" fill="url(#linearGradient2736)" opacity=".03"/>
   <rect x="24.103" y="57.359" width="80.513" height="66.259" rx=".5" ry=".5" fill="url(#linearGradient3086)" opacity=".03"/>
   <path d="m26.619 57.359c1.8101 2.1216 18.145 3.7862 38.655 3.7862 20.229 0 36.293-1.6472 38.484-3.7271-0.0308-0.0032-0.0255-0.05916-0.0572-0.05916h-77.082z" fill="#fff" opacity=".5"/>
   <g transform="matrix(1.7195,0,0,1.9816,4.4209,1.4876)">
    <path d="m13.971 30.767c-0.43954 2.6295-0.93088 19.309 0.69644 22.88 1.5919 3.4933 1.3929-16.667 5.2731-19.84 3.9212-3.2069-5.5549-5.52-5.9695-3.04z" fill="url(#radialGradient2811)" opacity=".40278"/>
    <path d="m13.729 30.942c-0.50723 3.0697-1.0742 22.541 0.80369 26.71 1.837 4.0782 1.6074-19.457 6.0851-23.161 4.525-3.7437-6.4104-6.4441-6.8888-3.5489z" fill="url(#radialGradient2813)" opacity=".3"/>
    <path d="m13.232 31.092c-0.6303 3.4488-1.3349 25.325 0.99868 30.009 2.2827 4.5818 1.9974-21.86 7.5615-26.022 5.6229-4.206-7.9657-7.2399-8.5601-3.9872z" fill="url(#radialGradient2815)" opacity=".2"/>
   </g>
   <g transform="matrix(-1.7195,0,0,1.9816,124.3,1.4876)">
    <path d="m13.971 30.767c-0.43954 2.6295-0.93088 19.309 0.69644 22.88 1.5919 3.4933 1.3929-16.667 5.2731-19.84 3.9212-3.2069-5.5549-5.52-5.9695-3.04z" fill="url(#radialGradient2811)" opacity=".40278"/>
    <path d="m13.729 30.942c-0.50723 3.0697-1.0742 22.541 0.80369 26.71 1.837 4.0782 1.6074-19.457 6.0851-23.161 4.525-3.7437-6.4104-6.4441-6.8888-3.5489z" fill="url(#radialGradient2813)" opacity=".3"/>
    <path d="m13.232 31.092c-0.6303 3.4488-1.3349 25.325 0.99868 30.009 2.2827 4.5818 1.9974-21.86 7.5615-26.022 5.6229-4.206-7.9657-7.2399-8.5601-3.9872z" fill="url(#radialGradient2815)" opacity=".2"/>
   </g>
   <path d="m103.12 114.72v7.8872c0 0.55755-0.43214 1.0064-0.96891 1.0064h-75.575c-0.53678 0-0.96891-0.44886-0.96891-1.0064v-28.015c0 29.517 77.513-20.879 77.513 20.128z" fill="url(#linearGradient3080)" opacity=".25"/>
   <path d="m25.647 123.62c1.8101-2.1216 18.145-3.7862 38.655-3.7862 20.229 0 36.293 1.6472 38.484 3.7271-0.0308 3e-3 -0.0255 0.0592-0.0572 0.0592h-77.082z" opacity=".5"/>
  </g>
 </g>
</svg>
